<svg width="270" height="93" viewBox="0 0 270 93" fill="none" xmlns="http://www.w3.org/2000/svg">
<path d="M112.214 12.5297C112.235 12.1166 112.447 11.91 112.85 11.91H114.218C114.642 11.91 114.854 12.1219 114.854 12.5456V30.263C114.854 30.6867 114.642 30.8986 114.218 30.8986H112.866C112.452 30.8986 112.235 30.692 112.214 30.2789L112.182 27.7206C111.45 28.8223 110.533 29.691 109.431 30.3266C108.328 30.9622 107.066 31.28 105.646 31.28C103.928 31.28 102.38 30.8456 101.002 29.977C99.6234 29.1083 98.5473 27.9219 97.7733 26.4176C96.9993 24.9134 96.6123 23.2502 96.6123 21.4282C96.6123 19.6167 96.9993 17.9588 97.7733 16.4546C98.5579 14.9503 99.6393 13.7639 101.018 12.8952C102.396 12.016 103.939 11.5763 105.646 11.5763C107.087 11.5763 108.354 11.8941 109.446 12.5297C110.549 13.1547 111.461 14.0128 112.182 15.1039L112.214 12.5297ZM105.677 28.6581C106.95 28.6581 108.084 28.3456 109.081 27.7206C110.088 27.0956 110.873 26.2375 111.434 25.1464C111.996 24.0553 112.277 22.8318 112.277 21.4758C112.277 20.1199 111.996 18.8857 111.434 17.7734C110.873 16.6611 110.088 15.7872 109.081 15.1516C108.084 14.516 106.955 14.1982 105.693 14.1982C104.453 14.1982 103.35 14.516 102.385 15.1516C101.421 15.7872 100.673 16.6611 100.143 17.7734C99.6128 18.8752 99.3478 20.1093 99.3478 21.4758C99.3478 22.8318 99.6128 24.0553 100.143 25.1464C100.673 26.2375 101.415 27.0956 102.369 27.7206C103.334 28.3456 104.437 28.6581 105.677 28.6581Z" fill="#F6F7ED"/>
<path d="M135.611 6.6981C135.611 6.27437 135.823 6.0625 136.248 6.0625H137.695C138.119 6.0625 138.331 6.27437 138.331 6.6981V30.263C138.331 30.6867 138.119 30.8986 137.695 30.8986H136.343C136.131 30.8986 135.967 30.8456 135.85 30.7397C135.744 30.6338 135.691 30.4802 135.691 30.2789L135.659 27.7206C134.928 28.8223 134.01 29.691 132.908 30.3266C131.805 30.9622 130.543 31.28 129.123 31.28C127.405 31.28 125.857 30.8456 124.479 29.977C123.101 29.1083 122.025 27.9219 121.251 26.4176C120.477 24.9134 120.09 23.2502 120.09 21.4282C120.09 19.6167 120.477 17.9588 121.251 16.4546C122.035 14.9503 123.117 13.7639 124.495 12.8952C125.873 12.016 127.416 11.5763 129.123 11.5763C130.522 11.5763 131.773 11.8782 132.876 12.4821C133.989 13.0753 134.901 13.8804 135.611 14.8974V6.6981ZM129.155 28.6581C130.427 28.6581 131.561 28.3456 132.558 27.7206C133.565 27.0956 134.35 26.2375 134.912 25.1464C135.474 24.0553 135.755 22.8318 135.755 21.4758C135.755 20.1199 135.474 18.8857 134.912 17.7734C134.35 16.6611 133.565 15.7872 132.558 15.1516C131.561 14.516 130.432 14.1982 129.17 14.1982C127.93 14.1982 126.827 14.516 125.863 15.1516C124.898 15.7872 124.15 16.6611 123.62 17.7734C123.09 18.8752 122.825 20.1093 122.825 21.4758C122.825 22.8318 123.09 24.0553 123.62 25.1464C124.15 26.2375 124.892 27.0956 125.847 27.7206C126.811 28.3456 127.914 28.6581 129.155 28.6581Z" fill="#F6F7ED"/>
<path d="M152.87 30.406C152.743 30.7344 152.494 30.8986 152.123 30.8986H150.564C150.204 30.8986 149.96 30.7344 149.833 30.406L142.708 12.641C142.666 12.5456 142.644 12.445 142.644 12.3391C142.644 12.2013 142.692 12.0954 142.788 12.0213C142.883 11.9471 143.021 11.91 143.201 11.91H144.855C145.216 11.91 145.459 12.0795 145.587 12.4185L151.36 27.5617L157.101 12.4185C157.228 12.0795 157.472 11.91 157.832 11.91H159.518C159.698 11.91 159.836 11.9471 159.932 12.0213C160.027 12.0954 160.075 12.2013 160.075 12.3391C160.075 12.445 160.053 12.5456 160.011 12.641L152.87 30.406Z" fill="#F6F7ED"/>
<path d="M178.052 12.5297C178.074 12.1166 178.286 11.91 178.688 11.91H180.056C180.48 11.91 180.692 12.1219 180.692 12.5456V30.263C180.692 30.6867 180.48 30.8986 180.056 30.8986H178.704C178.291 30.8986 178.074 30.692 178.052 30.2789L178.021 27.7206C177.289 28.8223 176.372 29.691 175.269 30.3266C174.167 30.9622 172.905 31.28 171.484 31.28C169.767 31.28 168.219 30.8456 166.84 29.977C165.462 29.1083 164.386 27.9219 163.612 26.4176C162.838 24.9134 162.451 23.2502 162.451 21.4282C162.451 19.6167 162.838 17.9588 163.612 16.4546C164.397 14.9503 165.478 13.7639 166.856 12.8952C168.235 12.016 169.777 11.5763 171.484 11.5763C172.926 11.5763 174.193 11.8941 175.285 12.5297C176.388 13.1547 177.3 14.0128 178.021 15.1039L178.052 12.5297ZM171.516 28.6581C172.788 28.6581 173.923 28.3456 174.919 27.7206C175.927 27.0956 176.711 26.2375 177.273 25.1464C177.835 24.0553 178.116 22.8318 178.116 21.4758C178.116 20.1199 177.835 18.8857 177.273 17.7734C176.711 16.6611 175.927 15.7872 174.919 15.1516C173.923 14.516 172.794 14.1982 171.532 14.1982C170.291 14.1982 169.189 14.516 168.224 15.1516C167.259 15.7872 166.512 16.6611 165.982 17.7734C165.451 18.8752 165.186 20.1093 165.186 21.4758C165.186 22.8318 165.451 24.0553 165.982 25.1464C166.512 26.2375 167.254 27.0956 168.208 27.7206C169.173 28.3456 170.276 28.6581 171.516 28.6581Z" fill="#F6F7ED"/>
<path d="M196.186 11.5604C197.702 11.5604 199.027 11.8888 200.162 12.5456C201.307 13.2024 202.187 14.1346 202.802 15.3423C203.427 16.5499 203.74 17.9641 203.74 19.5849V30.263C203.74 30.6867 203.528 30.8986 203.104 30.8986H201.657C201.233 30.8986 201.021 30.6867 201.021 30.263V19.855C201.021 18.711 200.803 17.7152 200.369 16.8677C199.934 16.0097 199.319 15.3529 198.524 14.8974C197.729 14.4312 196.806 14.1982 195.757 14.1982C194.718 14.1982 193.747 14.4471 192.846 14.945C191.956 15.4323 191.245 16.1103 190.715 16.9789C190.185 17.837 189.92 18.7957 189.92 19.855V30.263C189.92 30.6867 189.708 30.8986 189.284 30.8986H187.837C187.413 30.8986 187.201 30.6867 187.201 30.263V12.5456C187.201 12.1219 187.413 11.91 187.837 11.91H189.077C189.501 11.91 189.719 12.1166 189.729 12.5297L189.777 14.5478C190.466 13.6791 191.394 12.9641 192.56 12.4026C193.726 11.8412 194.935 11.5604 196.186 11.5604Z" fill="#F6F7ED"/>
<path d="M218.252 31.3276C216.439 31.3276 214.779 30.888 213.274 30.0088C211.768 29.1295 210.581 27.9378 209.712 26.4335C208.853 24.9293 208.423 23.2767 208.423 21.4758C208.423 19.6644 208.853 18.0065 209.712 16.5022C210.581 14.9874 211.763 13.7903 213.258 12.9111C214.764 12.0213 216.428 11.5763 218.252 11.5763C219.503 11.5763 220.68 11.7776 221.782 12.1802C222.885 12.5827 223.876 13.1547 224.756 13.8963C224.915 14.0446 224.995 14.1982 224.995 14.3571C224.995 14.4736 224.942 14.6219 224.836 14.802L224.152 15.8984C224.025 16.0891 223.876 16.1844 223.707 16.1844C223.558 16.1844 223.41 16.1209 223.261 15.9938C221.788 14.7967 220.15 14.1982 218.347 14.1982C217.043 14.1982 215.84 14.516 214.737 15.1516C213.645 15.7766 212.77 16.6453 212.113 17.7576C211.466 18.8699 211.143 20.1093 211.143 21.4758C211.143 22.8424 211.466 24.0765 212.113 25.1782C212.77 26.2799 213.65 27.1433 214.753 27.7683C215.856 28.3933 217.059 28.7058 218.363 28.7058C220.165 28.7058 221.803 28.1073 223.277 26.9102C223.404 26.7937 223.548 26.7354 223.707 26.7354C223.887 26.7354 224.041 26.8308 224.168 27.0214L224.836 28.102C224.942 28.2503 224.995 28.4039 224.995 28.5628C224.995 28.7005 224.931 28.8276 224.804 28.9441C223.935 29.7069 222.943 30.2948 221.83 30.7079C220.717 31.1211 219.524 31.3276 218.252 31.3276Z" fill="#F6F7ED"/>
<path d="M237.728 31.3276C236.031 31.3276 234.467 30.888 233.036 30.0088C231.605 29.1295 230.47 27.9378 229.633 26.4335C228.795 24.9293 228.376 23.282 228.376 21.4917C228.376 19.6908 228.763 18.033 229.537 16.5181C230.322 14.9927 231.387 13.7903 232.734 12.9111C234.08 12.0213 235.565 11.5763 237.187 11.5763C238.926 11.5763 240.452 12.0054 241.767 12.8634C243.092 13.7215 244.11 14.9026 244.821 16.4069C245.542 17.9112 245.902 19.5955 245.902 21.4599V22.1273C245.891 22.2756 245.828 22.3921 245.711 22.4769C245.605 22.551 245.451 22.5881 245.25 22.5881H231.112C231.26 23.8169 231.652 24.8975 232.289 25.8297C232.935 26.7513 233.741 27.4611 234.706 27.9589C235.681 28.4568 236.726 28.7058 237.839 28.7058C239.652 28.7058 241.295 28.102 242.769 26.8943C242.917 26.7672 243.061 26.7036 243.198 26.7036C243.379 26.7036 243.532 26.799 243.66 26.9897L244.407 28.0861C244.513 28.245 244.566 28.3827 244.566 28.4992C244.566 28.6793 244.481 28.8382 244.312 28.9759C243.41 29.728 242.403 30.3107 241.29 30.7238C240.187 31.1264 239 31.3276 237.728 31.3276ZM243.151 20.0457C243.002 18.8487 242.663 17.8105 242.133 16.9313C241.613 16.052 240.935 15.3793 240.097 14.9132C239.26 14.4365 238.311 14.1982 237.25 14.1982C236.243 14.1982 235.305 14.4418 234.436 14.9291C233.566 15.4058 232.84 16.0891 232.257 16.9789C231.674 17.8582 231.297 18.8804 231.128 20.0457H243.151Z" fill="#F6F7ED"/>
<path d="M265.382 6.6981C265.382 6.27437 265.594 6.0625 266.018 6.0625H267.466C267.89 6.0625 268.102 6.27437 268.102 6.6981V30.263C268.102 30.6867 267.89 30.8986 267.466 30.8986H266.114C265.902 30.8986 265.737 30.8456 265.621 30.7397C265.515 30.6338 265.462 30.4802 265.462 30.2789L265.43 27.7206C264.698 28.8223 263.781 29.691 262.679 30.3266C261.576 30.9622 260.314 31.28 258.894 31.28C257.176 31.28 255.628 30.8456 254.25 29.977C252.871 29.1083 251.795 27.9219 251.021 26.4176C250.247 24.9134 249.86 23.2502 249.86 21.4282C249.86 19.6167 250.247 17.9588 251.021 16.4546C251.806 14.9503 252.887 13.7639 254.266 12.8952C255.644 12.016 257.187 11.5763 258.894 11.5763C260.293 11.5763 261.544 11.8782 262.647 12.4821C263.76 13.0753 264.672 13.8804 265.382 14.8974V6.6981ZM258.925 28.6581C260.198 28.6581 261.332 28.3456 262.329 27.7206C263.336 27.0956 264.121 26.2375 264.682 25.1464C265.244 24.0553 265.525 22.8318 265.525 21.4758C265.525 20.1199 265.244 18.8857 264.682 17.7734C264.121 16.6611 263.336 15.7872 262.329 15.1516C261.332 14.516 260.203 14.1982 258.941 14.1982C257.701 14.1982 256.598 14.516 255.633 15.1516C254.669 15.7872 253.921 16.6611 253.391 17.7734C252.861 18.8752 252.596 20.1093 252.596 21.4758C252.596 22.8318 252.861 24.0553 253.391 25.1464C253.921 26.2375 254.663 27.0956 255.617 27.7206C256.582 28.3456 257.685 28.6581 258.925 28.6581Z" fill="#F6F7ED"/>
<path d="M101.161 59.8184C101.161 60.2422 100.949 60.454 100.525 60.454H99.0615C98.6374 60.454 98.4253 60.2422 98.4253 59.8184V44.0079H96.66C96.236 44.0079 96.0239 43.796 96.0239 43.3723V42.1011C96.0239 41.6773 96.236 41.4655 96.66 41.4655H98.4094V38.1762C98.4094 37.7843 98.6003 37.5565 98.982 37.493L100.477 37.2387C100.519 37.2281 100.572 37.2228 100.636 37.2228C100.806 37.2228 100.933 37.2758 101.018 37.3817C101.113 37.4877 101.161 37.6307 101.161 37.8108V41.4655H104.755C105.179 41.4655 105.391 41.6773 105.391 42.1011V43.3723C105.391 43.796 105.179 44.0079 104.755 44.0079H101.161V59.8184Z" fill="#F6F7ED"/>
<path d="M115.173 60.8831C113.476 60.8831 111.913 60.4434 110.481 59.5642C109.05 58.6849 107.916 57.4932 107.078 55.9889C106.24 54.4847 105.822 52.8374 105.822 51.0471C105.822 49.2463 106.209 47.5884 106.983 46.0736C107.767 44.5481 108.833 43.3458 110.179 42.4665C111.526 41.5767 113.01 41.1318 114.632 41.1318C116.371 41.1318 117.898 41.5608 119.212 42.4189C120.538 43.2769 121.555 44.4581 122.266 45.9623C122.987 47.4666 123.347 49.1509 123.347 51.0154V51.6827C123.337 51.8311 123.273 51.9476 123.156 52.0323C123.05 52.1065 122.897 52.1436 122.695 52.1436H108.557C108.705 53.3724 109.098 54.4529 109.734 55.3851C110.381 56.3067 111.186 57.0165 112.151 57.5144C113.127 58.0123 114.171 58.2612 115.284 58.2612C117.097 58.2612 118.741 57.6574 120.214 56.4497C120.363 56.3226 120.506 56.2591 120.644 56.2591C120.824 56.2591 120.978 56.3544 121.105 56.5451L121.852 57.6415C121.958 57.8004 122.011 57.9381 122.011 58.0546C122.011 58.2347 121.927 58.3936 121.757 58.5313C120.856 59.2835 119.848 59.8661 118.735 60.2792C117.633 60.6818 116.445 60.8831 115.173 60.8831ZM120.596 49.6012C120.448 48.4041 120.108 47.366 119.578 46.4867C119.059 45.6075 118.38 44.9348 117.542 44.4687C116.705 43.992 115.756 43.7536 114.696 43.7536C113.689 43.7536 112.75 43.9973 111.881 44.4846C111.011 44.9613 110.285 45.6445 109.702 46.5344C109.119 47.4136 108.743 48.4359 108.573 49.6012H120.596Z" fill="#F6F7ED"/>
<path d="M134.768 60.8831C132.955 60.8831 131.295 60.4434 129.79 59.5642C128.284 58.6849 127.097 57.4932 126.227 55.9889C125.369 54.4847 124.939 52.8321 124.939 51.0313C124.939 49.2198 125.369 47.5619 126.227 46.0577C127.097 44.5428 128.279 43.3458 129.774 42.4665C131.279 41.5767 132.944 41.1318 134.768 41.1318C136.019 41.1318 137.195 41.333 138.298 41.7356C139.401 42.1381 140.392 42.7102 141.272 43.4517C141.431 43.6 141.511 43.7536 141.511 43.9125C141.511 44.0291 141.458 44.1774 141.352 44.3574L140.668 45.4539C140.541 45.6445 140.392 45.7399 140.222 45.7399C140.074 45.7399 139.926 45.6763 139.777 45.5492C138.303 44.3522 136.665 43.7536 134.863 43.7536C133.559 43.7536 132.356 44.0714 131.253 44.707C130.161 45.332 129.286 46.2007 128.629 47.313C127.982 48.4253 127.659 49.6647 127.659 51.0313C127.659 52.3978 127.982 53.6319 128.629 54.7336C129.286 55.8353 130.166 56.6987 131.269 57.3237C132.371 57.9487 133.575 58.2612 134.879 58.2612C136.681 58.2612 138.319 57.6627 139.793 56.4656C139.92 56.3491 140.063 56.2909 140.222 56.2909C140.403 56.2909 140.556 56.3862 140.684 56.5769L141.352 57.6574C141.458 57.8057 141.511 57.9593 141.511 58.1182C141.511 58.2559 141.447 58.383 141.32 58.4996C140.45 59.2623 139.459 59.8502 138.346 60.2634C137.233 60.6765 136.04 60.8831 134.768 60.8831Z" fill="#F6F7ED"/>
<path d="M153.576 41.1159C155.103 41.1159 156.434 41.4443 157.568 42.1011C158.713 42.7579 159.593 43.6901 160.208 44.8977C160.834 46.1053 161.147 47.5196 161.147 49.1403V59.8184C161.147 60.2422 160.934 60.454 160.51 60.454H159.063C158.639 60.454 158.427 60.2422 158.427 59.8184V49.4105C158.427 48.2664 158.21 47.2706 157.775 46.4231C157.351 45.5651 156.747 44.903 155.962 44.4369C155.177 43.9708 154.26 43.7377 153.211 43.7377C152.172 43.7377 151.202 43.9867 150.3 44.4846C149.399 44.9825 148.678 45.6657 148.137 46.5344C147.597 47.3924 147.326 48.3511 147.326 49.4105V59.8184C147.326 60.2422 147.114 60.454 146.69 60.454H145.243C144.819 60.454 144.607 60.2422 144.607 59.8184V36.2535C144.607 35.8298 144.819 35.6179 145.243 35.6179H146.69C147.114 35.6179 147.326 35.8298 147.326 36.2535V43.9443C148.026 43.118 148.938 42.4401 150.062 41.9104C151.196 41.3807 152.368 41.1159 153.576 41.1159Z" fill="#F6F7ED"/>
<path d="M173.721 41.1159C175.237 41.1159 176.562 41.4443 177.697 42.1011C178.842 42.7579 179.722 43.6901 180.337 44.8977C180.962 46.1053 181.275 47.5196 181.275 49.1403V59.8184C181.275 60.2422 181.063 60.454 180.639 60.454H179.192C178.768 60.454 178.556 60.2422 178.556 59.8184V49.4105C178.556 48.2664 178.338 47.2706 177.904 46.4231C177.469 45.5651 176.854 44.9083 176.059 44.4528C175.264 43.9867 174.341 43.7536 173.292 43.7536C172.253 43.7536 171.282 44.0026 170.381 44.5005C169.491 44.9878 168.78 45.6657 168.25 46.5344C167.72 47.3924 167.455 48.3511 167.455 49.4105V59.8184C167.455 60.2422 167.243 60.454 166.819 60.454H165.372C164.948 60.454 164.735 60.2422 164.735 59.8184V42.1011C164.735 41.6773 164.948 41.4655 165.372 41.4655H166.612C167.036 41.4655 167.254 41.672 167.264 42.0852L167.312 44.1032C168.001 43.2346 168.929 42.5195 170.095 41.9581C171.261 41.3966 172.47 41.1159 173.721 41.1159Z" fill="#F6F7ED"/>
<path d="M193.245 60.8831C191.528 60.8831 189.927 60.4487 188.442 59.5801C186.969 58.7008 185.792 57.5091 184.912 56.0048C184.032 54.49 183.592 52.8374 183.592 51.0471C183.592 49.2357 184.032 47.5725 184.912 46.0577C185.792 44.5428 186.974 43.3458 188.458 42.4665C189.943 41.5767 191.549 41.1318 193.277 41.1318C194.995 41.1318 196.596 41.5767 198.08 42.4665C199.564 43.3458 200.746 44.5428 201.626 46.0577C202.506 47.5725 202.946 49.2357 202.946 51.0471C202.946 52.8374 202.501 54.49 201.611 56.0048C200.731 57.5091 199.543 58.7008 198.048 59.5801C196.564 60.4487 194.963 60.8831 193.245 60.8831ZM193.293 58.2612C194.512 58.2612 195.652 57.9434 196.712 57.3078C197.772 56.6722 198.621 55.8036 199.257 54.7019C199.893 53.5896 200.211 52.366 200.211 51.0313C200.211 49.6965 199.893 48.473 199.257 47.3607C198.621 46.2378 197.772 45.3585 196.712 44.7229C195.652 44.0767 194.512 43.7536 193.293 43.7536C192.063 43.7536 190.913 44.0767 189.842 44.7229C188.771 45.3585 187.918 46.2378 187.281 47.3607C186.645 48.473 186.327 49.6965 186.327 51.0313C186.327 52.366 186.645 53.5896 187.281 54.7019C187.918 55.8036 188.771 56.6722 189.842 57.3078C190.913 57.9434 192.063 58.2612 193.293 58.2612Z" fill="#F6F7ED"/>
<path d="M208.55 59.8184C208.55 60.2422 208.338 60.454 207.914 60.454H206.467C206.043 60.454 205.83 60.2422 205.83 59.8184V36.2535C205.83 35.8298 206.043 35.6179 206.467 35.6179H207.914C208.338 35.6179 208.55 35.8298 208.55 36.2535V59.8184Z" fill="#F6F7ED"/>
<path d="M221.081 60.8831C219.363 60.8831 217.763 60.4487 216.278 59.5801C214.804 58.7008 213.628 57.5091 212.748 56.0048C211.868 54.49 211.428 52.8374 211.428 51.0471C211.428 49.2357 211.868 47.5725 212.748 46.0577C213.628 44.5428 214.81 43.3458 216.294 42.4665C217.778 41.5767 219.385 41.1318 221.113 41.1318C222.83 41.1318 224.431 41.5767 225.916 42.4665C227.4 43.3458 228.582 44.5428 229.462 46.0577C230.342 47.5725 230.782 49.2357 230.782 51.0471C230.782 52.8374 230.337 54.49 229.446 56.0048C228.566 57.5091 227.379 58.7008 225.884 59.5801C224.4 60.4487 222.799 60.8831 221.081 60.8831ZM221.129 58.2612C222.348 58.2612 223.488 57.9434 224.548 57.3078C225.608 56.6722 226.456 55.8036 227.093 54.7019C227.729 53.5896 228.047 52.366 228.047 51.0313C228.047 49.6965 227.729 48.473 227.093 47.3607C226.456 46.2378 225.608 45.3585 224.548 44.7229C223.488 44.0767 222.348 43.7536 221.129 43.7536C219.899 43.7536 218.749 44.0767 217.678 44.7229C216.607 45.3585 215.753 46.2378 215.117 47.3607C214.481 48.473 214.163 49.6965 214.163 51.0313C214.163 52.366 214.481 53.5896 215.117 54.7019C215.753 55.8036 216.607 56.6722 217.678 57.3078C218.749 57.9434 219.899 58.2612 221.129 58.2612Z" fill="#F6F7ED"/>
<path d="M241.268 66.4605C240.081 66.4605 238.877 66.3334 237.658 66.0791C236.449 65.8249 235.384 65.47 234.461 65.0145C234.218 64.8979 234.096 64.7338 234.096 64.5219C234.096 64.416 234.127 64.2994 234.191 64.1723L234.827 62.8852C234.944 62.6416 235.108 62.5197 235.32 62.5197C235.426 62.5197 235.543 62.5515 235.67 62.6151C236.497 63.007 237.388 63.3089 238.342 63.5208C239.296 63.7327 240.229 63.8386 241.141 63.8386C242.742 63.8386 244.046 63.5208 245.053 62.8852C246.06 62.2602 246.781 61.4657 247.216 60.5017C247.651 59.5483 247.868 58.5472 247.868 57.4985V57.0854C247.126 58.1235 246.204 58.971 245.101 59.6278C244.009 60.2739 242.768 60.597 241.379 60.597C239.651 60.597 238.103 60.1945 236.736 59.3894C235.368 58.5737 234.302 57.4402 233.539 55.9889C232.776 54.5377 232.394 52.8957 232.394 51.063C232.394 49.1456 232.776 47.4295 233.539 45.9147C234.302 44.3998 235.368 43.2187 236.736 42.3712C238.103 41.5237 239.651 41.1 241.379 41.1C242.8 41.1 244.062 41.4125 245.164 42.0375C246.278 42.6625 247.2 43.51 247.932 44.5799L247.964 42.0852C247.964 41.8839 248.017 41.7303 248.123 41.6244C248.239 41.5184 248.398 41.4655 248.6 41.4655H249.967C250.391 41.4655 250.603 41.6773 250.603 42.1011V57.4667C250.603 59.0663 250.264 60.5494 249.586 61.9159C248.907 63.2825 247.868 64.3789 246.469 65.2051C245.069 66.042 243.336 66.4605 241.268 66.4605ZM241.459 57.9752C242.699 57.9752 243.818 57.6521 244.815 57.0059C245.822 56.3597 246.606 55.5016 247.168 54.4317C247.741 53.3512 248.027 52.2018 248.027 50.9836C248.027 49.7759 247.741 48.6107 247.168 47.4878C246.596 46.3649 245.806 45.4539 244.799 44.7547C243.802 44.0555 242.684 43.706 241.443 43.706C240.224 43.706 239.132 44.0185 238.167 44.6435C237.213 45.2579 236.465 46.1212 235.925 47.2335C235.394 48.3352 235.129 49.5906 235.129 50.9995C235.129 52.3448 235.4 53.5472 235.94 54.6065C236.481 55.6658 237.229 56.4921 238.183 57.0854C239.148 57.6786 240.24 57.9752 241.459 57.9752Z" fill="#F6F7ED"/>
<path d="M260.632 65.6024C260.505 65.9308 260.261 66.095 259.901 66.095H258.342C258.162 66.095 258.024 66.0579 257.929 65.9838C257.833 65.9096 257.786 65.8037 257.786 65.666C257.786 65.56 257.807 65.4594 257.849 65.3641L259.869 60.4064L252.617 42.1964C252.575 42.1011 252.553 42.0004 252.553 41.8945C252.553 41.7568 252.601 41.6508 252.697 41.5767C252.792 41.5025 252.93 41.4655 253.11 41.4655H254.764C255.125 41.4655 255.368 41.6297 255.496 41.9581L261.269 56.9423L267.01 41.9739C267.137 41.635 267.381 41.4655 267.741 41.4655H269.427C269.607 41.4655 269.745 41.5078 269.841 41.5926C269.947 41.6667 270 41.7727 270 41.9104C270 42.0057 269.978 42.1011 269.936 42.1964L260.632 65.6024Z" fill="#F6F7ED"/>
<path d="M120.134 71.5294C120.261 71.1904 120.505 71.0209 120.865 71.0209H122.535C122.715 71.0209 122.853 71.0633 122.949 71.148C123.055 71.2222 123.108 71.3281 123.108 71.4658C123.108 71.5612 123.086 71.6565 123.044 71.7518L116.094 89.5169C115.967 89.8453 115.723 90.0095 115.363 90.0095H113.804C113.444 90.0095 113.2 89.8453 113.072 89.5169L109.335 80.0941L105.709 89.501C105.582 89.84 105.338 90.0095 104.978 90.0095H103.403C103.043 90.0095 102.799 89.8453 102.672 89.5169L95.7536 71.7518C95.7111 71.6565 95.6899 71.5612 95.6899 71.4658C95.6899 71.3281 95.7377 71.2222 95.8331 71.148C95.9391 71.0633 96.0822 71.0209 96.2625 71.0209H97.8051C98.1656 71.0209 98.4094 71.1904 98.5367 71.5294L104.182 86.6726L109.637 71.5294C109.754 71.1904 109.993 71.0209 110.353 71.0209H112.023C112.192 71.0209 112.33 71.0633 112.436 71.148C112.542 71.2222 112.595 71.3281 112.595 71.4658C112.595 71.5718 112.574 71.6671 112.532 71.7518L110.592 76.8049L114.424 86.6726L120.134 71.5294Z" fill="#F6F7ED"/>
<path d="M135.145 90.4385C133.427 90.4385 131.826 90.0042 130.342 89.1355C128.868 88.2563 127.691 87.0645 126.811 85.5603C125.932 84.0454 125.491 82.3929 125.491 80.6026C125.491 78.7911 125.932 77.128 126.811 75.6131C127.691 74.0983 128.874 72.9012 130.358 72.022C131.842 71.1321 133.449 70.6872 135.177 70.6872C136.894 70.6872 138.495 71.1321 139.98 72.022C141.464 72.9012 142.646 74.0983 143.526 75.6131C144.406 77.128 144.846 78.7911 144.846 80.6026C144.846 82.3929 144.401 84.0454 143.51 85.5603C142.63 87.0645 141.443 88.2563 139.948 89.1355C138.463 90.0042 136.863 90.4385 135.145 90.4385ZM135.193 87.8167C136.412 87.8167 137.552 87.4989 138.612 86.8633C139.672 86.2277 140.52 85.359 141.156 84.2573C141.793 83.145 142.111 81.9215 142.111 80.5867C142.111 79.2519 141.793 78.0284 141.156 76.9161C140.52 75.7932 139.672 74.914 138.612 74.2784C137.552 73.6322 136.412 73.3091 135.193 73.3091C133.963 73.3091 132.812 73.6322 131.742 74.2784C130.671 74.914 129.817 75.7932 129.181 76.9161C128.545 78.0284 128.227 79.2519 128.227 80.5867C128.227 81.9215 128.545 83.145 129.181 84.2573C129.817 85.359 130.671 86.2277 131.742 86.8633C132.812 87.4989 133.963 87.8167 135.193 87.8167Z" fill="#F6F7ED"/>
<path d="M157.921 70.6872C159.056 70.6872 160.254 71.0262 161.515 71.7042C161.749 71.8419 161.865 72.0167 161.865 72.2285C161.865 72.3451 161.833 72.4616 161.77 72.5781L161.15 73.8017C161.022 74.0347 160.858 74.1512 160.657 74.1512C160.54 74.1512 160.413 74.1142 160.275 74.04C159.342 73.5527 158.451 73.3091 157.603 73.3091C156.787 73.3091 156.007 73.5951 155.265 74.1671C154.534 74.7286 153.94 75.5178 153.484 76.5347C153.039 77.5411 152.816 78.6746 152.816 79.9352V89.3739C152.816 89.7976 152.604 90.0095 152.18 90.0095H150.733C150.309 90.0095 150.097 89.7976 150.097 89.3739V71.6565C150.097 71.2328 150.309 71.0209 150.733 71.0209H151.973C152.397 71.0209 152.615 71.2275 152.625 71.6406L152.689 73.6586C153.346 72.7158 154.078 71.9849 154.884 71.4658C155.7 70.9468 156.712 70.6872 157.921 70.6872Z" fill="#F6F7ED"/>
<path d="M168.869 89.3739C168.869 89.7976 168.657 90.0095 168.233 90.0095H166.786C166.362 90.0095 166.15 89.7976 166.15 89.3739V65.809C166.15 65.3852 166.362 65.1734 166.786 65.1734H168.233C168.657 65.1734 168.869 65.3852 168.869 65.809V89.3739Z" fill="#F6F7ED"/>
<path d="M189.635 65.809C189.635 65.3852 189.847 65.1734 190.271 65.1734H191.719C192.143 65.1734 192.355 65.3852 192.355 65.809V89.3739C192.355 89.7976 192.143 90.0095 191.719 90.0095H190.367C190.155 90.0095 189.99 89.9565 189.874 89.8506C189.768 89.7446 189.715 89.591 189.715 89.3898L189.683 86.8315C188.951 87.9332 188.034 88.8018 186.932 89.4374C185.829 90.073 184.567 90.3908 183.147 90.3908C181.429 90.3908 179.881 89.9565 178.503 89.0879C177.124 88.2192 176.048 87.0327 175.274 85.5285C174.5 84.0242 174.113 82.3611 174.113 80.539C174.113 78.7276 174.5 77.0697 175.274 75.5654C176.059 74.0612 177.14 72.8747 178.519 72.0061C179.897 71.1268 181.44 70.6872 183.147 70.6872C184.546 70.6872 185.797 70.9891 186.9 71.5929C188.013 72.1862 188.925 72.9913 189.635 74.0082V65.809ZM183.178 87.769C184.451 87.769 185.585 87.4565 186.582 86.8315C187.589 86.2065 188.374 85.3484 188.935 84.2573C189.497 83.1662 189.778 81.9426 189.778 80.5867C189.778 79.2307 189.497 77.9966 188.935 76.8843C188.374 75.772 187.589 74.8981 186.582 74.2625C185.585 73.6269 184.456 73.3091 183.194 73.3091C181.954 73.3091 180.851 73.6269 179.886 74.2625C178.922 74.8981 178.174 75.772 177.644 76.8843C177.114 77.986 176.849 79.2202 176.849 80.5867C176.849 81.9426 177.114 83.1662 177.644 84.2573C178.174 85.3484 178.916 86.2065 179.87 86.8315C180.835 87.4565 181.938 87.769 183.178 87.769Z" fill="#F6F7ED"/>
<path d="M63.605 64.0419C63.605 65.3413 64.075 66.3159 65.0149 66.9656C65.9548 67.6153 67.0827 67.9401 68.3986 67.9401C70.6544 67.9401 72.8633 67.012 75.0251 65.1557C77.1869 63.2994 79.1137 60.8862 80.8056 57.9162C82.5915 54.9461 84.0013 51.6048 85.0352 47.8922C86.0692 44.0868 86.5861 40.2814 86.5861 36.476C86.5861 31.6497 85.6932 27.2874 83.9073 23.3892C82.1215 19.3982 79.5837 16.0105 76.294 13.226C73.0982 10.3488 69.1976 8.12126 64.5919 6.54341C60.0803 4.96557 55.0047 4.17665 49.3652 4.17665C42.7857 4.17665 36.7233 5.29042 31.1777 7.51797C25.7262 9.6527 21.0266 12.6692 17.0789 16.5674C13.1312 20.4656 10.0765 25.1527 7.91464 30.6287C5.75282 36.012 4.67191 41.9521 4.67191 48.4491C4.67191 54.5748 5.61183 60.1437 7.49167 65.1557C9.46551 70.0748 12.1913 74.2979 15.669 77.8248C19.1467 81.3518 23.3764 84.0434 28.3579 85.8997C33.3395 87.8488 38.8381 88.8233 44.8536 88.8233C50.6811 88.8233 56.3206 87.9416 61.7722 86.1781C67.3177 84.5075 72.2523 82.0943 76.5759 78.9386L78.9728 82.2799C74.1792 85.7141 68.8686 88.3593 63.0411 90.2156C57.2136 92.0719 51.1511 93 44.8536 93C38.1801 93 32.0706 91.9326 26.5251 89.7979C21.0735 87.6632 16.3739 84.6467 12.4263 80.7485C8.57258 76.8503 5.56483 72.1632 3.40301 66.6871C1.33518 61.2111 0.30127 55.1317 0.30127 48.4491C0.30127 41.3024 1.47617 34.759 3.82598 28.8189C6.26977 22.8787 9.65349 17.774 13.9771 13.5045C18.3008 9.23503 23.4703 5.94012 29.4858 3.61976C35.5953 1.20659 42.2688 0 49.5062 0C55.8037 0 61.4902 0.928146 66.5658 2.78444C71.7354 4.54791 76.106 7.1003 79.6777 10.4416C83.2494 13.7829 86.0222 17.8204 87.996 22.5539C89.9698 27.2874 90.9568 32.5778 90.9568 38.4251C90.9568 43.5299 90.2518 48.3099 88.8419 52.765C87.4321 57.2201 85.4582 61.1183 82.9204 64.4596C80.4766 67.8009 77.6099 70.4461 74.3201 72.3952C71.1244 74.2515 67.6937 75.1796 64.028 75.1796C60.6443 75.1796 57.6835 74.3907 55.1457 72.8129C52.7019 71.235 50.8691 69.1003 49.6472 66.4087C46.5454 69.6572 43.6317 72.0239 40.9059 73.509C38.1801 74.9012 35.2194 75.5973 32.0236 75.5973C27.136 75.5973 23.2824 73.9731 20.4626 70.7245C17.7368 67.476 16.3739 62.5105 16.3739 55.8278C16.3739 51.0943 17.0319 46.5928 18.3478 42.3233C19.7577 38.0539 21.6845 34.2949 24.1283 31.0464C26.5721 27.7979 29.4389 25.1991 32.7286 23.25C36.0183 21.3009 39.59 20.3263 43.4437 20.3263C46.2429 20.3263 48.8277 20.8345 51.1981 21.8508L50.9161 22.6745C50.0549 22.2228 49.068 21.997 47.9553 21.997C45.6055 21.997 43.3497 23.0644 41.1879 25.1991C39.1201 27.3338 37.2872 30.0719 35.6893 33.4132C34.0915 36.7545 32.8226 40.4671 31.8827 44.5509C31.0367 48.5419 30.6138 52.4401 30.6138 56.2455C30.6138 60.4221 31.2247 63.6707 32.4466 65.991C33.6685 68.2186 35.7363 69.3323 38.6501 69.3323C40.154 69.3323 41.7518 69.0075 43.4437 68.3578C45.2295 67.6153 47.1564 66.4551 49.2242 64.8772L53.8573 40.3334L51.7852 40.8651L52.326 37.9745L54.3626 37.4077L56.5556 25.3383L71.7823 20.3263L69.0219 35.0838L75.0251 33.4132L74.3201 36.476L68.4811 37.9745L63.605 64.0419Z" fill="#F6F7ED"/>
</svg>
